<svg xmlns="http://www.w3.org/2000/svg" viewBox="0 0 27.36 25.66"><defs><style>.cls-1{fill:#fff;}</style></defs><g id="Layer_2" data-name="Layer 2"><g id="Layer_1-2" data-name="Layer 1"><path class="cls-1" d="M9.89,3.41s-3.61,7.23,1.21,12,11.44,2.41,11.44,2.41a12.32,12.32,0,0,1-9.82,7.72,8.08,8.08,0,0,1-2.25,0,12.86,12.86,0,0,1-9-5.32C-.86,16.79.05,12.56,1,10A9.11,9.11,0,0,1,4.3,5.66,12.31,12.31,0,0,1,9.89,3.41Z"/><polygon class="cls-1" points="20.73 7.02 22.54 7.02 24.05 5.52 25.55 7.02 27.36 7.02 25.55 8.83 26.15 10.63 24.05 9.73 21.94 10.63 22.54 8.7 20.73 7.02"/><polygon class="cls-1" points="13.51 9.1 14.47 9.1 15.27 8.3 16.07 9.1 17.03 9.1 16.07 10.06 16.39 11.03 15.27 10.54 14.15 11.03 14.47 10 13.51 9.1"/><polygon class="cls-1" points="15.31 0.86 16.34 0.86 17.2 0 18.07 0.86 19.1 0.86 18.07 1.89 18.41 2.92 17.2 2.41 16 2.92 16.34 1.82 15.31 0.86"/></g></g></svg>