<svg xmlns="http://www.w3.org/2000/svg" viewBox="0 0 29.76 20.75"><defs><style>.cls-1{fill:none;stroke:#fff;stroke-miterlimit:10;stroke-width:1.5px;}</style></defs><g id="Layer_2" data-name="Layer 2"><g id="Layer_1-2" data-name="Layer 1"><path class="cls-1" d="M1.52,6.92H17.57a1.75,1.75,0,0,0,.65-.12,3.14,3.14,0,0,0,2.16-2.93A3.25,3.25,0,0,0,18,.83a3.11,3.11,0,0,0-4,3.35"/><path class="cls-1" d="M0,10.26H26.57a1.12,1.12,0,0,0,.44-.09,3.31,3.31,0,0,0,2-3.25c0-2.74-2.85-2.74-3.46-2.74a2.84,2.84,0,0,0-3,3"/><path class="cls-1" d="M3,13.3H21.91a1.59,1.59,0,0,1,1.16.5A4.52,4.52,0,0,1,24.34,17,2.85,2.85,0,0,1,21.29,20a3.51,3.51,0,0,1-3.65-3.65"/></g></g></svg>